<svg xmlns="http://www.w3.org/2000/svg" width="157" height="20" viewBox="0 0 157 20">
  <g fill="none" fill-rule="evenodd">
    <rect width="157" height="20" fill="#555" rx="3"/>
    <path fill="#45D298" d="M0,0 L35,0 L35,0 C36.6568542,4.11038738e-15 38,1.34314575 38,3 L38,17 L38,17 C38,18.6568542 36.6568542,20 35,20 L0,20 L0,0 Z" transform="translate(119)"/>
    <path fill="#FFF" d="M33.1191406,13.9414062 C32.9121083,13.996094 32.6865247,14.0410154 32.4423828,14.0761719 C32.198241,14.1113283 31.9804697,14.1289062 31.7890625,14.1289062 C31.1210904,14.1289062 30.613283,13.9492205 30.265625,13.5898438 C29.917967,13.230467 29.7441406,12.6543008 29.7441406,11.8613281 L29.7441406,8.38085938 L29,8.38085938 L29,7.45507812 L29.7441406,7.45507812 L29.7441406,5.57421875 L30.8457031,5.57421875 L30.8457031,7.45507812 L33.1191406,7.45507812 L33.1191406,8.38085938 L30.8457031,8.38085938 L30.8457031,11.3632812 C30.8457031,11.707033 30.8535155,11.975585 30.8691406,12.1689453 C30.8847657,12.3623057 30.9394527,12.5429679 31.0332031,12.7109375 C31.1191411,12.8671883 31.2373039,12.981445 31.3876953,13.0537109 C31.5380867,13.1259769 31.7675766,13.1621094 32.0761719,13.1621094 C32.2558603,13.1621094 32.4433584,13.1357425 32.6386719,13.0830078 C32.8339854,13.0302732 32.9746089,12.9863283 33.0605469,12.9511719 L33.1191406,12.9511719 L33.1191406,13.9414062 Z M39.9277344,10.8417969 L35.1054688,10.8417969 C35.1054688,11.2441426 35.166015,11.5947251 35.2871094,11.8935547 C35.4082037,12.1923843 35.5742177,12.437499 35.7851562,12.6289062 C35.9882823,12.8164072 36.2294908,12.9570308 36.5087891,13.0507812 C36.7880873,13.1445317 37.0957014,13.1914062 37.4316406,13.1914062 C37.8769554,13.1914062 38.3251931,13.10254 38.7763672,12.9248047 C39.2275413,12.7470694 39.5488272,12.5722665 39.7402344,12.4003906 L39.7988281,12.4003906 L39.7988281,13.6015625 C39.4277325,13.7578133 39.0488301,13.8886713 38.6621094,13.9941406 C38.2753887,14.0996099 37.8691428,14.1523438 37.4433594,14.1523438 C36.3574164,14.1523438 35.5097687,13.8584014 34.9003906,13.2705078 C34.2910126,12.6826142 33.9863281,11.8476617 33.9863281,10.765625 C33.9863281,9.69530715 34.2783174,8.84570627 34.8623047,8.21679688 C35.446292,7.58788748 36.214839,7.2734375 37.1679688,7.2734375 C38.0507857,7.2734375 38.7314429,7.53124742 39.2099609,8.046875 C39.688479,8.56250258 39.9277344,9.29491713 39.9277344,10.2441406 L39.9277344,10.8417969 Z M38.8554688,9.99804688 C38.8515625,9.41991898 38.7060561,8.97265783 38.4189453,8.65625 C38.1318345,8.33984217 37.6953154,8.18164062 37.109375,8.18164062 C36.5195283,8.18164062 36.0498064,8.35546701 35.7001953,8.703125 C35.3505842,9.05078299 35.152344,9.4824193 35.1054688,9.99804688 L38.8554688,9.99804688 Z M46.2734375,12.1132812 C46.2734375,12.7109405 46.0263697,13.20117 45.5322266,13.5839844 C45.0380835,13.9667988 44.3632855,14.1582031 43.5078125,14.1582031 C43.0234351,14.1582031 42.5791036,14.1005865 42.1748047,13.9853516 C41.7705058,13.8701166 41.431642,13.7441413 41.1582031,13.6074219 L41.1582031,12.3710938 L41.2167969,12.3710938 C41.5644549,12.6328138 41.9511697,12.8408195 42.3769531,12.9951172 C42.8027365,13.1494148 43.2109355,13.2265625 43.6015625,13.2265625 C44.0859399,13.2265625 44.4648424,13.1484383 44.7382812,12.9921875 C45.0117201,12.8359367 45.1484375,12.5898454 45.1484375,12.2539062 C45.1484375,11.9960925 45.0742195,11.8007819 44.9257812,11.6679688 C44.777343,11.5351556 44.4921896,11.4218755 44.0703125,11.328125 C43.9140617,11.2929686 43.7099622,11.2519534 43.4580078,11.2050781 C43.2060534,11.1582029 42.9765635,11.1074221 42.7695312,11.0527344 C42.1953096,10.9003899 41.7880871,10.6767593 41.5478516,10.3818359 C41.307616,10.0869126 41.1875,9.72461152 41.1875,9.29492188 C41.1875,9.02538928 41.2431635,8.77148557 41.3544922,8.53320312 C41.4658209,8.29492068 41.6347645,8.08203219 41.8613281,7.89453125 C42.0800792,7.71093658 42.3583967,7.56543022 42.6962891,7.45800781 C43.0341814,7.3505854 43.4121073,7.296875 43.8300781,7.296875 C44.2207051,7.296875 44.6162089,7.34472608 45.0166016,7.44042969 C45.4169942,7.53613329 45.7499987,7.65234307 46.015625,7.7890625 L46.015625,8.96679688 L45.9570312,8.96679688 C45.6757798,8.75976459 45.3339864,8.58496165 44.9316406,8.44238281 C44.5292949,8.29980397 44.1347676,8.22851562 43.7480469,8.22851562 C43.3457011,8.22851562 43.0058608,8.30566329 42.7285156,8.45996094 C42.4511705,8.61425858 42.3125,8.84374848 42.3125,9.1484375 C42.3125,9.4179701 42.3964835,9.62109307 42.5644531,9.7578125 C42.7285164,9.89453193 42.9941388,10.0058589 43.3613281,10.0917969 C43.5644541,10.1386721 43.7919909,10.1855466 44.0439453,10.2324219 C44.2958997,10.2792971 44.5058585,10.3222654 44.6738281,10.3613281 C45.1855494,10.4785162 45.5800767,10.6796861 45.8574219,10.9648438 C46.134767,11.2539077 46.2734375,11.6367164 46.2734375,12.1132812 Z M51.2480469,13.9414062 C51.0410146,13.996094 50.8154309,14.0410154 50.5712891,14.0761719 C50.3271472,14.1113283 50.109376,14.1289062 49.9179688,14.1289062 C49.2499967,14.1289062 48.7421892,13.9492205 48.3945312,13.5898438 C48.0468733,13.230467 47.8730469,12.6543008 47.8730469,11.8613281 L47.8730469,8.38085938 L47.1289062,8.38085938 L47.1289062,7.45507812 L47.8730469,7.45507812 L47.8730469,5.57421875 L48.9746094,5.57421875 L48.9746094,7.45507812 L51.2480469,7.45507812 L51.2480469,8.38085938 L48.9746094,8.38085938 L48.9746094,11.3632812 C48.9746094,11.707033 48.9824218,11.975585 48.9980469,12.1689453 C49.013672,12.3623057 49.0683589,12.5429679 49.1621094,12.7109375 C49.2480473,12.8671883 49.3662102,12.981445 49.5166016,13.0537109 C49.6669929,13.1259769 49.8964828,13.1621094 50.2050781,13.1621094 C50.3847665,13.1621094 50.5722646,13.1357425 50.7675781,13.0830078 C50.9628916,13.0302732 51.1035152,12.9863283 51.1894531,12.9511719 L51.2480469,12.9511719 L51.2480469,13.9414062 Z M61.6367188,13.5898438 C61.2695294,13.7656259 60.9209001,13.9023433 60.5908203,14 C60.2607405,14.0976567 59.9101581,14.1464844 59.5390625,14.1464844 C59.0664039,14.1464844 58.6328145,14.0771491 58.2382812,13.9384766 C57.843748,13.799804 57.5058608,13.5898452 57.2246094,13.3085938 C56.9394517,13.0273423 56.7187508,12.6718771 56.5625,12.2421875 C56.4062492,11.8124979 56.328125,11.3105497 56.328125,10.7363281 C56.328125,9.66601027 56.6220674,8.82617492 57.2099609,8.21679688 C57.7978545,7.60741883 58.5742139,7.30273438 59.5390625,7.30273438 C59.9140644,7.30273438 60.2822248,7.35546822 60.6435547,7.4609375 C61.0048846,7.56640678 61.335936,7.69531174 61.6367188,7.84765625 L61.6367188,9.07226562 L61.578125,9.07226562 C61.2421858,8.81054557 60.8955096,8.6093757 60.5380859,8.46875 C60.1806623,8.3281243 59.8320329,8.2578125 59.4921875,8.2578125 C58.8671844,8.2578125 58.3740252,8.46777134 58.0126953,8.88769531 C57.6513654,9.30761929 57.4707031,9.92382406 57.4707031,10.7363281 C57.4707031,11.5253946 57.6474592,12.1318338 58.0009766,12.5556641 C58.354494,12.9794943 58.8515593,13.1914062 59.4921875,13.1914062 C59.7148449,13.1914062 59.9414051,13.1621097 60.171875,13.1035156 C60.4023449,13.0449216 60.6093741,12.9687505 60.7929688,12.875 C60.9531258,12.7929683 61.1035149,12.7060551 61.2441406,12.6142578 C61.3847663,12.5224605 61.4960933,12.4433597 61.578125,12.3769531 L61.6367188,12.3769531 L61.6367188,13.5898438 Z M68.6269531,10.7304688 C68.6269531,11.7968803 68.3535184,12.6386688 67.8066406,13.2558594 C67.2597629,13.87305 66.5273483,14.1816406 65.609375,14.1816406 C64.6835891,14.1816406 63.9482449,13.87305 63.4033203,13.2558594 C62.8583957,12.6386688 62.5859375,11.7968803 62.5859375,10.7304688 C62.5859375,9.66405717 62.8583957,8.82129216 63.4033203,8.20214844 C63.9482449,7.58300472 64.6835891,7.2734375 65.609375,7.2734375 C66.5273483,7.2734375 67.2597629,7.58300472 67.8066406,8.20214844 C68.3535184,8.82129216 68.6269531,9.66405717 68.6269531,10.7304688 Z M67.4902344,10.7304688 C67.4902344,9.88280826 67.3242204,9.25293175 66.9921875,8.84082031 C66.6601546,8.42870888 66.1992217,8.22265625 65.609375,8.22265625 C65.0117158,8.22265625 64.5478532,8.42870888 64.2177734,8.84082031 C63.8876937,9.25293175 63.7226562,9.88280826 63.7226562,10.7304688 C63.7226562,11.5507854 63.8886702,12.1728494 64.2207031,12.5966797 C64.552736,13.0205099 65.015622,13.2324219 65.609375,13.2324219 C66.1953154,13.2324219 66.6552718,13.022463 66.9892578,12.6025391 C67.3232439,12.1826151 67.4902344,11.5585979 67.4902344,10.7304688 Z M75.9042969,7.45507812 L73.2558594,14 L72.1484375,14 L69.5175781,7.45507812 L70.7128906,7.45507812 L72.7402344,12.6640625 L74.75,7.45507812 L75.9042969,7.45507812 Z M82.71875,10.8417969 L77.8964844,10.8417969 C77.8964844,11.2441426 77.9570306,11.5947251 78.078125,11.8935547 C78.1992194,12.1923843 78.3652333,12.437499 78.5761719,12.6289062 C78.7792979,12.8164072 79.0205064,12.9570308 79.2998047,13.0507812 C79.579103,13.1445317 79.8867171,13.1914062 80.2226562,13.1914062 C80.667971,13.1914062 81.1162087,13.10254 81.5673828,12.9248047 C82.0185569,12.7470694 82.3398428,12.5722665 82.53125,12.4003906 L82.5898438,12.4003906 L82.5898438,13.6015625 C82.2187481,13.7578133 81.8398457,13.8886713 81.453125,13.9941406 C81.0664043,14.0996099 80.6601584,14.1523438 80.234375,14.1523438 C79.1484321,14.1523438 78.3007843,13.8584014 77.6914062,13.2705078 C77.0820282,12.6826142 76.7773438,11.8476617 76.7773438,10.765625 C76.7773438,9.69530715 77.069333,8.84570627 77.6533203,8.21679688 C78.2373076,7.58788748 79.0058546,7.2734375 79.9589844,7.2734375 C80.8418013,7.2734375 81.5224585,7.53124742 82.0009766,8.046875 C82.4794946,8.56250258 82.71875,9.29491713 82.71875,10.2441406 L82.71875,10.8417969 Z M81.6464844,9.99804688 C81.6425781,9.41991898 81.4970717,8.97265783 81.2099609,8.65625 C80.9228501,8.33984217 80.4863311,8.18164062 79.9003906,8.18164062 C79.3105439,8.18164062 78.8408221,8.35546701 78.4912109,8.703125 C78.1415998,9.05078299 77.9433596,9.4824193 77.8964844,9.99804688 L81.6464844,9.99804688 Z M88.4726562,8.65625 L88.4140625,8.65625 C88.2499992,8.6171873 88.0908211,8.58886728 87.9365234,8.57128906 C87.7822258,8.55371085 87.5996104,8.54492188 87.3886719,8.54492188 C87.0488264,8.54492188 86.7207047,8.62011644 86.4042969,8.77050781 C86.087889,8.92089919 85.7832046,9.11523318 85.4902344,9.35351562 L85.4902344,14 L84.3886719,14 L84.3886719,7.45507812 L85.4902344,7.45507812 L85.4902344,8.421875 C85.9277366,8.07031074 86.3134749,7.82128979 86.6474609,7.67480469 C86.981447,7.52831958 87.3222639,7.45507812 87.6699219,7.45507812 C87.8613291,7.45507812 87.9999996,7.45996089 88.0859375,7.46972656 C88.1718754,7.47949224 88.3007804,7.49804674 88.4726562,7.52539062 L88.4726562,8.65625 Z M94.3847656,14 L93.2890625,14 L93.2890625,13.3027344 C93.1914058,13.369141 93.0595711,13.4619135 92.8935547,13.5810547 C92.7275382,13.7001959 92.566407,13.7949215 92.4101562,13.8652344 C92.2265616,13.9550786 92.0156262,14.0302731 91.7773438,14.0908203 C91.5390613,14.1513675 91.2597672,14.1816406 90.9394531,14.1816406 C90.3496064,14.1816406 89.8496114,13.9863301 89.4394531,13.5957031 C89.0292948,13.2050762 88.8242188,12.7070343 88.8242188,12.1015625 C88.8242188,11.6054663 88.930663,11.2041031 89.1435547,10.8974609 C89.3564464,10.5908188 89.6601543,10.3496103 90.0546875,10.1738281 C90.453127,9.998046 90.9316378,9.87890656 91.4902344,9.81640625 C92.0488309,9.75390594 92.6484343,9.70703141 93.2890625,9.67578125 L93.2890625,9.50585938 C93.2890625,9.25585812 93.2451176,9.04882895 93.1572266,8.88476562 C93.0693355,8.7207023 92.9433602,8.59179734 92.7792969,8.49804688 C92.6230461,8.40820268 92.435548,8.34765641 92.2167969,8.31640625 C91.9980458,8.28515609 91.7695324,8.26953125 91.53125,8.26953125 C91.2421861,8.26953125 90.9199237,8.30761681 90.5644531,8.38378906 C90.2089826,8.45996132 89.8417988,8.57031178 89.4628906,8.71484375 L89.4042969,8.71484375 L89.4042969,7.59570312 C89.6191417,7.53710908 89.9296855,7.4726566 90.3359375,7.40234375 C90.7421895,7.3320309 91.1425762,7.296875 91.5371094,7.296875 C91.9980492,7.296875 92.3994124,7.33496056 92.7412109,7.41113281 C93.0830095,7.48730507 93.378905,7.61718658 93.6289062,7.80078125 C93.8750012,7.98046965 94.0624994,8.2128892 94.1914062,8.49804688 C94.3203131,8.78320455 94.3847656,9.13671664 94.3847656,9.55859375 L94.3847656,14 Z M93.2890625,12.3886719 L93.2890625,10.5664062 C92.9531233,10.5859376 92.5576195,10.6152342 92.1025391,10.6542969 C91.6474587,10.6933596 91.2871107,10.7499996 91.0214844,10.8242188 C90.7050765,10.9140629 90.4492197,11.05371 90.2539062,11.2431641 C90.0585928,11.4326181 89.9609375,11.6933577 89.9609375,12.0253906 C89.9609375,12.4003925 90.0742176,12.6826162 90.3007812,12.8720703 C90.5273449,13.0615244 90.8730446,13.15625 91.3378906,13.15625 C91.7246113,13.15625 92.0781234,13.0810554 92.3984375,12.9306641 C92.7187516,12.7802727 93.0156236,12.5996104 93.2890625,12.3886719 Z M101.814453,13.2558594 C101.814453,14.3652399 101.562503,15.1796849 101.058594,15.6992188 C100.554685,16.2187526 99.7793021,16.4785156 98.7324219,16.4785156 C98.3847639,16.4785156 98.0459001,16.4541018 97.7158203,16.4052734 C97.3857405,16.3564451 97.0605485,16.2871098 96.7402344,16.1972656 L96.7402344,15.0722656 L96.7988281,15.0722656 C96.9785165,15.1425785 97.2636699,15.2294917 97.6542969,15.3330078 C98.0449238,15.436524 98.4355449,15.4882812 98.8261719,15.4882812 C99.2011737,15.4882812 99.5117175,15.4433598 99.7578125,15.3535156 C100.003907,15.2636714 100.195312,15.1386727 100.332031,14.9785156 C100.468751,14.8261711 100.566406,14.6425792 100.625,14.4277344 C100.683594,14.2128896 100.712891,13.9726576 100.712891,13.7070312 L100.712891,13.109375 C100.380858,13.3750013 100.063478,13.5732415 99.7607422,13.7041016 C99.4580063,13.8349616 99.072268,13.9003906 98.6035156,13.9003906 C97.8222617,13.9003906 97.2021507,13.6181669 96.7431641,13.0537109 C96.2841774,12.489255 96.0546875,11.6933645 96.0546875,10.6660156 C96.0546875,10.1035128 96.1337883,9.6181661 96.2919922,9.20996094 C96.4501961,8.80175577 96.6660143,8.44922023 96.9394531,8.15234375 C97.1933606,7.87499861 97.5019513,7.65918046 97.8652344,7.50488281 C98.2285174,7.35058517 98.589842,7.2734375 98.9492188,7.2734375 C99.3281269,7.2734375 99.6455065,7.31152306 99.9013672,7.38769531 C100.157228,7.46386757 100.427733,7.58007734 100.712891,7.73632812 L100.783203,7.45507812 L101.814453,7.45507812 L101.814453,13.2558594 Z M100.712891,12.2011719 L100.712891,8.6328125 C100.41992,8.49999934 100.147462,8.40527372 99.8955078,8.34863281 C99.6435534,8.2919919 99.3925794,8.26367188 99.1425781,8.26367188 C98.5371063,8.26367188 98.0605486,8.46679484 97.7128906,8.87304688 C97.3652326,9.27929891 97.1914062,9.86913676 97.1914062,10.6425781 C97.1914062,11.3769568 97.3203112,11.9335919 97.578125,12.3125 C97.8359388,12.6914081 98.2636689,12.8808594 98.8613281,12.8808594 C99.1816422,12.8808594 99.5029281,12.8193366 99.8251953,12.6962891 C100.147463,12.5732416 100.443358,12.4082042 100.712891,12.2011719 Z M109.460938,10.8417969 L104.638672,10.8417969 C104.638672,11.2441426 104.699218,11.5947251 104.820312,11.8935547 C104.941407,12.1923843 105.107421,12.437499 105.318359,12.6289062 C105.521485,12.8164072 105.762694,12.9570308 106.041992,13.0507812 C106.32129,13.1445317 106.628905,13.1914062 106.964844,13.1914062 C107.410158,13.1914062 107.858396,13.10254 108.30957,12.9248047 C108.760744,12.7470694 109.08203,12.5722665 109.273438,12.4003906 L109.332031,12.4003906 L109.332031,13.6015625 C108.960936,13.7578133 108.582033,13.8886713 108.195312,13.9941406 C107.808592,14.0996099 107.402346,14.1523438 106.976562,14.1523438 C105.89062,14.1523438 105.042972,13.8584014 104.433594,13.2705078 C103.824216,12.6826142 103.519531,11.8476617 103.519531,10.765625 C103.519531,9.69530715 103.811521,8.84570627 104.395508,8.21679688 C104.979495,7.58788748 105.748042,7.2734375 106.701172,7.2734375 C107.583989,7.2734375 108.264646,7.53124742 108.743164,8.046875 C109.221682,8.56250258 109.460938,9.29491713 109.460938,10.2441406 L109.460938,10.8417969 Z M108.388672,9.99804688 C108.384766,9.41991898 108.239259,8.97265783 107.952148,8.65625 C107.665038,8.33984217 107.228519,8.18164062 106.642578,8.18164062 C106.052731,8.18164062 105.58301,8.35546701 105.233398,8.703125 C104.883787,9.05078299 104.685547,9.4824193 104.638672,9.99804688 L108.388672,9.99804688 Z"/>
    <g fill="#FFF" transform="translate(6 5)">
      <polygon points="11.135 0 8.018 3.089 9.872 4.926 11.135 3.674 14.718 7.226 16.571 5.389"/>
      <polygon points="7.518 3.893 5.613 2.065 .754 6.729 0 7.453 1.914 9.29 2.667 8.566 5.131 6.201 5.613 5.738 7.518 7.567 9.312 9.29 11.226 7.453 9.431 5.73"/>
    </g>
    <path fill="#FFF" d="M126.488,14 L128.192,14 L128.192,5.996 L126.704,5.996 L124.184,8.528 L125.156,9.548 L126.488,8.192 L126.488,14 Z M129.392,10.004 C129.392,7.94 130.412,5.876 132.704,5.876 C134.984,5.876 136.016,7.94 136.016,10.004 C136.016,12.068 134.984,14.144 132.704,14.144 C130.412,14.144 129.392,12.068 129.392,10.004 Z M134.276,10.004 C134.276,8.528 133.844,7.388 132.704,7.388 C131.552,7.388 131.12,8.528 131.12,10.004 C131.12,11.48 131.552,12.632 132.704,12.632 C133.844,12.632 134.276,11.48 134.276,10.004 Z M136.832,10.004 C136.832,7.94 137.852,5.876 140.144,5.876 C142.424,5.876 143.456,7.94 143.456,10.004 C143.456,12.068 142.424,14.144 140.144,14.144 C137.852,14.144 136.832,12.068 136.832,10.004 Z M141.716,10.004 C141.716,8.528 141.284,7.388 140.144,7.388 C138.992,7.388 138.56,8.528 138.56,10.004 C138.56,11.48 138.992,12.632 140.144,12.632 C141.284,12.632 141.716,11.48 141.716,10.004 Z M144.176,7.892 C144.176,6.764 144.98,5.876 146.204,5.876 C147.44,5.876 148.244,6.764 148.244,7.892 C148.244,9.008 147.44,9.86 146.204,9.86 C144.98,9.86 144.176,9.008 144.176,7.892 Z M145.424,14 L150.536,5.996 L151.448,5.996 L146.324,14 L145.424,14 Z M147.152,7.892 C147.152,7.22 146.756,6.824 146.204,6.824 C145.664,6.824 145.256,7.22 145.256,7.892 C145.256,8.516 145.664,8.924 146.204,8.924 C146.756,8.924 147.152,8.516 147.152,7.892 Z M148.58,12.164 C148.58,11.036 149.384,10.148 150.608,10.148 C151.832,10.148 152.648,11.036 152.648,12.164 C152.648,13.28 151.832,14.144 150.608,14.144 C149.384,14.144 148.58,13.28 148.58,12.164 Z M151.568,12.164 C151.568,11.504 151.16,11.096 150.608,11.096 C150.056,11.096 149.66,11.504 149.66,12.164 C149.66,12.812 150.056,13.208 150.608,13.208 C151.16,13.208 151.568,12.812 151.568,12.164 Z"/>
  </g>
</svg>
